<svg width="681" height="704" viewBox="0 0 681 704" fill="none" xmlns="http://www.w3.org/2000/svg">
<path fill-rule="evenodd" clip-rule="evenodd" d="M564.264 643.311H117.134C93.0683 643.311 75.297 618.4 84.3739 595.491C126.489 489.559 225.43 428.874 340.682 428.874C455.968 428.874 554.909 489.559 597.025 595.491C606.101 618.4 588.33 643.311 564.264 643.311ZM201.573 214.437C201.573 135.595 263.998 71.4785 340.682 71.4785C417.4 71.4785 479.791 135.595 479.791 214.437C479.791 293.278 417.4 357.395 340.682 357.395C263.998 357.395 201.573 293.278 201.573 214.437ZM679.864 630.301C654.968 512.092 577.908 424.376 476.176 383.329C474.05 382.471 473.584 379.638 475.315 378.134C528.075 332.284 558.453 260.077 546.911 181.197C533.208 87.4522 457.325 12.4365 365.722 1.50023C239.272 -13.6176 132.019 87.5255 132.019 214.437C132.019 280.113 160.819 338.828 206.08 378.134C207.812 379.638 207.346 382.471 205.219 383.329C103.456 424.377 26.4296 512.092 1.49984 630.301C-7.64116 673.748 26.2408 714.432 69.4064 714.788C69.7808 714.791 70.1551 714.86 70.5037 714.997L170.132 754.021C170.273 754.076 170.417 754.121 170.565 754.154L355.133 795.896C355.437 795.965 355.75 795.986 356.061 795.958L479.539 784.952C479.706 784.937 479.872 784.908 480.035 784.865L596.649 754.203C596.899 754.137 597.153 754.105 597.411 754.102C640.783 753.63 689.052 673.81 679.864 630.301Z" fill="#FF0000"/>
</svg>
